<?xml version="1.0" encoding="utf-8"?>
<!-- Generator: Adobe Illustrator 16.2.0, SVG Export Plug-In . SVG Version: 6.00 Build 0)  -->
<!DOCTYPE svg PUBLIC "-//W3C//DTD SVG 1.1//EN" "http://www.w3.org/Graphics/SVG/1.1/DTD/svg11.dtd">
<svg version="1.1" id="Layer_1" xmlns="http://www.w3.org/2000/svg" xmlns:xlink="http://www.w3.org/1999/xlink" x="0px" y="0px"
	 width="600px" height="800px" viewBox="0 0 600 800" enable-background="new 0 0 600 800" xml:space="preserve">
<rect x="7.001" y="514.667" fill="#FFFFFF" stroke="#000000" stroke-width="2" stroke-miterlimit="10" width="583.666" height="280.667"/>
<rect x="7" y="6" fill="#FFFFFF" stroke="#000000" stroke-width="2" stroke-miterlimit="10" width="584" height="359.759"/>
<path fill="#FFFFFF" stroke="#000000" stroke-width="2" stroke-miterlimit="10" d="M355.27,335.73c0,0,0-40.405,16.691-56.388
	c3.345-3.202,5.847,1.207,6.607,0c0,0-15.222,19.095-15.222,56.388C363.347,340.327,356.057,339.36,355.27,335.73z"/>
<path fill="#FFFFFF" stroke="#000000" stroke-width="2" stroke-miterlimit="10" d="M591,485.236v77.491
	c0,0-65.238-30.179-144.666-28.395c-67.948,1.526-88.936,23.146-169.334,29.619c-79.25,6.381-127.21-17.375-165.333-16.952
	C59.334,547.581,7,562.728,7,562.728v-77.491H591z"/>
<path fill="#FFFFFF" stroke="#000000" stroke-width="2" stroke-miterlimit="10" d="M128.192,33.527l9.863,46.158l20.515-21.698
	l-1.578,27.616l39.451-5.918l-18.147,28.011h35.112l-35.506,10.652l26.433,30.377c0,0-35.901,1.973-35.506,1.973
	s10.257,20.515,10.257,20.515l-20.12-12.23l-4.34,49.314l-23.276-43.396l-10.257,35.901v-36.69l-40.635,28.405l17.753-43.791
	l-26.433,9.863l21.698-16.964L48.5,135.707l40.241-20.515l-27.222-5.523l28.011-6.313L48.5,76.529l53.654,11.441l-7.496-27.616
	l24.065,19.331L128.192,33.527z"/>
<circle fill="#FFFFFF" stroke="#000000" stroke-width="2" stroke-miterlimit="10" cx="133.518" cy="120.913" r="35.309"/>
<path fill="#FFFFFF" stroke="#000000" stroke-width="2" stroke-miterlimit="10" d="M326.16,142.583c0,0-8.5-17.5,9-21.5s26,8,26,8
	s0.5-7.133,13-8.816s11,8.816,11,8.816s8.5-19.5,27.5-15s15.5,16,15.5,16s13-7,19.5,1.5s-4,11-4,11s23,0.5,22,10s-26,2.5-26,2.5
	s2.5,14.5-20.5,15.5s-21-9-21-9s-5.5,12.5-23,13.5s-12.5-10.5-12.5-10.5s-18.5,10-25.5,6.5s-2-15-2-15s-22.5,9.5-27.5,0
	S326.16,142.583,326.16,142.583z"/>
<path fill="#FFFFFF" stroke="#000000" stroke-width="2" stroke-miterlimit="10" d="M384.749,78.734c0,0-13.053-32.524,13.818-39.958
	c26.872-7.434,39.924,14.868,39.924,14.868s0.768-13.256,19.961-16.385s16.89,16.385,16.89,16.385s13.053-36.241,42.228-27.878
	c29.174,8.364,23.801,29.736,23.801,29.736s19.961-13.009,29.942,2.788c9.979,15.797-6.142,20.443-6.142,20.443
	s35.316,0.93,33.78,18.585c-1.536,17.656-39.923,4.646-39.923,4.646s3.839,26.949-31.478,28.807
	c-35.318,1.859-32.246-16.726-32.246-16.726s-8.445,23.231-35.316,25.09c-26.871,1.858-19.193-19.514-19.193-19.514
	s-28.408,18.585-39.156,12.08c-10.748-6.504-3.071-27.877-3.071-27.877s-34.549,17.655-42.227,0
	C348.665,86.168,384.749,78.734,384.749,78.734z"/>
<path fill="#FFFFFF" stroke="#000000" stroke-width="2" stroke-miterlimit="10" d="M460,332.752
	c-33.564-2.713-43.107-27.212-59-29.502c-16.489-2.376-34.474,44-79,44c-31,0-89.5,18-89.5,18l303.5,0.5
	C536,365.75,503.269,336.25,460,332.752z"/>
<path fill="#FFFFFF" stroke="#000000" stroke-width="2" stroke-miterlimit="10" d="M591,542.584c0,0-57.239-21.702-136.667-19.918
	c-67.948,1.526-108.509,13.275-177.333,21.143c-60,6.858-121.826-6.039-159.948-5.616C64.719,538.773,7,542.584,7,542.584V361.092
	c0,0,4.056,0,11.491,0c1.859,0,3.93,0,6.206,0c30.873,2.617,61.5,2.069,92.148,0.542c3.405-0.171,6.811-0.354,10.217-0.563
	C159,359,191,359,222.946,361.041c2.599,0.021,5.207,0.03,7.822,0.051c30.809,1.717,60.62,1.889,90.697,0.55
	c3.342-0.154,6.696-0.338,10.098-0.598c25.15-4.035,50.66-2.922,75.89-1.255c3.153,0.208,6.303,0.425,9.45,0.642
	c25.969,2.498,51.398,2.758,76.895,2.034c3.642-0.104,7.285-0.227,10.932-0.367c3.659-0.262,7.345-0.656,11.076-1.078
	C540,360,591.25,361.75,591.25,361.75S591,411.01,591,415.125C591,468.618,591,542.584,591,542.584z"/>
<path fill="#FFFFFF" stroke="#000000" stroke-width="2" stroke-miterlimit="10" d="M232.364,419.973c0,0,10.268,9.262,28.185,9.262
	s26.171-6.645,31.003-9.262c4.832-2.616,13.689-7.649,23.554-5.837c0,0-8.052,2.214-7.852,6.441
	c0.201,4.228,8.254,5.838,17.112,5.838c8.857,0,41.27-5.014,41.27-4.923c0,0.092-23.456,9.751-39.257,14.234
	c-11.072,3.143-28.185,4.43-30.197,1.56c-2.013-2.869,1.015-6.826,1.015-6.826c-6.04,1.515-9.283,6.505-23.563,8.235
	c-13.286,1.611-24.762-1.052-31.605-6.039C238.819,430.317,232.364,419.973,232.364,419.973z"/>
<path fill="#FFFFFF" stroke="#000000" stroke-width="2" stroke-miterlimit="10" d="M436.633,445.387c0,0,10.268,9.262,28.185,9.262
	s26.171-6.645,31.003-9.262c4.832-2.616,13.689-7.649,23.554-5.837c0,0-8.052,2.214-7.852,6.441
	c0.201,4.228,8.254,5.838,17.112,5.838c8.857,0,41.27-5.014,41.27-4.923c0,0.092-23.456,9.751-39.257,14.234
	c-11.072,3.143-28.185,4.43-30.197,1.56c-2.013-2.869,1.015-6.826,1.015-6.826c-6.04,1.515-9.283,6.505-23.563,8.235
	c-13.286,1.611-24.762-1.052-31.605-6.039C443.088,455.731,436.633,445.387,436.633,445.387z"/>
<path fill="#FFFFFF" stroke="#000000" stroke-width="2" stroke-miterlimit="10" d="M396.063,384.965c0,0,7.597,6.853,20.854,6.853
	c13.256,0,19.363-4.916,22.938-6.853c3.574-1.936,10.128-5.66,17.427-4.318c0,0-5.958,1.638-5.81,4.766s6.106,4.319,12.661,4.319
	c6.554,0,30.534-3.709,30.534-3.642c0,0.068-17.354,7.214-29.045,10.532c-8.192,2.325-20.854,3.277-22.343,1.153
	c-1.489-2.122,0.751-5.05,0.751-5.05c-4.469,1.121-6.868,4.813-17.434,6.093c-9.83,1.192-18.32-0.778-23.384-4.468
	C400.839,392.619,396.063,384.965,396.063,384.965z"/>
<path fill="#FFFFFF" stroke="#000000" stroke-width="2" stroke-miterlimit="10" d="M97.896,395.203c0,0,7.597,6.852,20.854,6.852
	c13.256,0,19.363-4.916,22.938-6.852c3.574-1.936,10.128-5.66,17.427-4.318c0,0-5.958,1.638-5.81,4.766s6.106,4.319,12.661,4.319
	c6.554,0,30.534-3.709,30.534-3.642c0,0.068-17.354,7.214-29.045,10.532c-8.192,2.324-20.854,3.277-22.343,1.152
	c-1.489-2.121,0.751-5.05,0.751-5.05c-4.469,1.12-6.868,4.813-17.434,6.093c-9.83,1.193-18.32-0.777-23.384-4.467
	C102.672,402.856,97.896,395.203,97.896,395.203z"/>
<path fill="#FFFFFF" stroke="#000000" stroke-width="2" stroke-miterlimit="10" d="M-175,233"/>
<path fill="#FFFFFF" stroke="#000000" stroke-width="2" stroke-miterlimit="10" d="M455.5,332.943c0,0,0-52.791,17.818-73.674
	c3.57-4.184,6.24,1.577,7.053,0c0,0-16.249,24.948-16.249,73.674C464.122,338.949,456.34,337.687,455.5,332.943z"/>
<path fill="#FFFFFF" stroke="#000000" stroke-width="2" stroke-miterlimit="10" d="M468.187,341.839c0,0,0-41.107,18.698-57.368
	c3.746-3.258,6.548,1.228,7.401,0c0,0-17.052,19.427-17.052,57.368C477.234,346.516,469.067,345.532,468.187,341.839z"/>
<path fill="#FFFFFF" stroke="#000000" stroke-width="2" stroke-miterlimit="10" d="M450.816,329.584c0,0,0-45.502-14.494-63.502
	c-2.904-3.606-5.075,1.359-5.736,0c0,0,13.218,21.504,13.218,63.502C443.804,334.761,450.133,333.673,450.816,329.584z"/>
<path fill="#FFFFFF" stroke="#000000" stroke-width="2" stroke-miterlimit="10" d="M350.17,343.466c0,0,0-45.968-17.916-64.152
	c-3.591-3.643-6.276,1.373-7.093,0c0,0,16.339,21.724,16.339,64.152C341.5,348.696,349.325,347.597,350.17,343.466z"/>
<path fill="#FFFFFF" stroke="#000000" stroke-width="2" stroke-miterlimit="10" d="M369.055,259.028
	c6.08-2.293,16.137,10.296,16.137,10.296s15.689-4.727,17.014-0.441l-11.576,8.553c0,0,21.336,3.808,18.768,8.48
	c-0.584,1.063-20.17,0.072-20.17,0.072s5.323,13.053,2.104,13.759c-1.695,0.372-16.662-12.458-16.662-12.458
	s-16.371,14.627-17.656,14.069c-3.397-1.473,3.099-17.226,3.099-17.226s-19.48,5.268-19.119,2.97
	c1.52-9.668,17.364-12.579,17.364-12.579L347.48,271.3c12.454-7.747,23.854-2.717,23.854-2.717L369.055,259.028z"/>
<path fill="#FFFFFF" stroke="#000000" stroke-width="2" stroke-miterlimit="10" d="M318.19,251.064
	c6.435-2.589,17.077,11.625,17.077,11.625s16.604-5.337,18.006-0.498l-12.251,9.657c0,0,22.579,4.299,19.861,9.575
	c-0.618,1.201-21.346,0.082-21.346,0.082s5.634,14.737,2.227,15.534c-1.794,0.42-17.634-14.065-17.634-14.065
	s-17.325,16.514-18.686,15.885c-3.595-1.664,3.279-19.448,3.279-19.448s-20.616,5.947-20.233,3.354
	c1.608-10.916,18.377-14.202,18.377-14.202l-11.509-3.642c13.18-8.747,25.244-3.068,25.244-3.068L318.19,251.064z"/>
<path fill="#FFFFFF" stroke="#000000" stroke-width="2" stroke-miterlimit="10" d="M428.056,238.048
	c5.105-2.454,13.549,11.021,13.549,11.021s13.176-5.06,14.287-0.472l-9.72,9.155c0,0,17.915,4.076,15.759,9.078
	c-0.491,1.138-16.938,0.077-16.938,0.077s4.471,13.972,1.768,14.727c-1.424,0.398-13.992-13.334-13.992-13.334
	s-13.747,15.656-14.826,15.06c-2.853-1.577,2.602-18.438,2.602-18.438s-16.357,5.638-16.055,3.179
	c1.277-10.349,14.582-13.464,14.582-13.464l-9.132-3.453c10.458-8.292,20.03-2.908,20.03-2.908L428.056,238.048z"/>
<path fill="#FFFFFF" stroke="#000000" stroke-width="2" stroke-miterlimit="10" d="M468.62,222.094
	c8.693-2.831,23.073,12.711,23.073,12.711s22.436-5.836,24.328-0.544l-16.553,10.56c0,0,30.508,4.702,26.835,10.47
	c-0.835,1.313-28.84,0.089-28.84,0.089s7.611,16.116,3.008,16.987c-2.424,0.459-23.825-15.38-23.825-15.38
	s-23.408,18.058-25.246,17.37c-4.856-1.819,4.431-21.267,4.431-21.267s-27.854,6.503-27.338,3.667
	c2.173-11.937,24.829-15.53,24.829-15.53l-15.55-3.982c17.808-9.565,34.108-3.355,34.108-3.355L468.62,222.094z"/>
<path fill="#FFFFFF" stroke="#000000" stroke-width="2" stroke-miterlimit="10" d="M477.44,263.538
	c5.947-2.374,15.784,10.659,15.784,10.659s15.348-4.894,16.643-0.457l-11.323,8.854c0,0,20.869,3.942,18.357,8.779
	c-0.571,1.101-19.729,0.075-19.729,0.075s5.207,13.512,2.058,14.243c-1.658,0.385-16.298-12.896-16.298-12.896
	s-16.014,15.142-17.271,14.564c-3.322-1.525,3.03-17.832,3.03-17.832s-19.054,5.453-18.7,3.075
	c1.486-10.008,16.984-13.021,16.984-13.021l-10.637-3.339c12.182-8.02,23.332-2.813,23.332-2.813L477.44,263.538z"/>
<path fill="#FFFFFF" stroke="#000000" stroke-width="2" stroke-miterlimit="10" d="M159.75,515.75c0,0-69.083,38.359-69.083,86.917
	c0,2.667,9.571-15.48,29.833-14.917c17.745,0.493,29.357,13.206,30.595,14.896S159.75,515.75,159.75,515.75z"/>
<ellipse fill="#FFFFFF" stroke="#000000" stroke-width="2" stroke-miterlimit="10" cx="230.5" cy="697" rx="132.5" ry="43"/>
<path fill="#FFFFFF" stroke="#000000" stroke-width="2" stroke-miterlimit="10" d="M391.967,723.88
	C369,744,339.75,740.5,319.02,754.292c-7.213-3.221-14.42-6.441-21.649-9.655c-3.614-1.605-7.228-3.212-10.823-4.814
	c-22.922-11.438-45.001-22.746-68.318-32.844c-4.662-2.021-9.33-4.018-14.001-5.994c-19.717-8.021-37.138-15.563-56.5-22.77
	C162,667.75,196.75,662,220.436,648.173c16.933,8.507,35.802,16.676,52.493,24.056c4.54,1.971,9.11,3.93,13.684,5.868
	c22.876,9.708,45.921,20.062,68.341,29.281c4.184,1.784,8.332,3.571,12.418,5.386c4.09,1.815,8.113,3.655,12.041,5.539
	C387.285,721.804,391.967,723.88,391.967,723.88z"/>
<polygon fill="#FFFFFF" stroke="#000000" stroke-width="2" stroke-miterlimit="10" points="245.5,660.75 260.75,667.125 194.5,697 
	175.875,689.375 "/>
<rect x="171" y="507" transform="matrix(0.9909 -0.1346 0.1346 0.9909 -81.1312 29.0135)" fill="#FFFFFF" stroke="#000000" stroke-width="2" stroke-miterlimit="10" width="6" height="215"/>
<path fill="#FFFFFF" stroke="#000000" stroke-width="2" stroke-miterlimit="10" d="M161.333,514.334
	c0,0,27.104,20.848,45.167,75.416c0.302,0.911-12.223-12.376-31.25-8.25c-20.75,4.5-23.79,21.444-23.917,19.501
	C148.667,560.001,161.333,514.334,161.333,514.334z"/>
<path fill="#FFFFFF" stroke="#000000" stroke-width="2" stroke-miterlimit="10" d="M162.25,514.25c0,0,94.928-10.843,112.991,43.726
	c0.302,0.911-4.483-6.454-14.491-2.726C248,560,246.05,577.368,245.5,575.5C234.491,538.142,162.25,514.25,162.25,514.25z"/>
<path fill="#FFFFFF" stroke="#000000" stroke-width="2" stroke-miterlimit="10" d="M160.75,515c0,0-90.333,16.333-99.934,67.567
	c-0.178,0.952,2.851-7.817,14.851-6.568c12.29,1.279,15.113,29.74,15.417,27.667C98.417,553.666,160.75,515,160.75,515z"/>
<path fill="#FFFFFF" stroke="#000000" stroke-width="2" stroke-miterlimit="10" d="M164.219,515.246
	c0,0,69.781,20.754,81.531,61.004c0.269,0.921-6.449-13.636-24.25-5.75c-13.167,5.833-13.663,22.357-14.25,20.5
	C194.869,551.823,164.219,515.246,164.219,515.246z"/>
<path fill="#FFFFFF" stroke="#000000" stroke-width="2" stroke-miterlimit="10" d="M15.729,453.64c0,0,10.267,9.262,28.184,9.262
	s26.171-6.645,31.003-9.262c4.832-2.616,13.689-7.649,23.554-5.837c0,0-8.052,2.214-7.852,6.441
	c0.201,4.228,8.254,5.838,17.112,5.838s41.27-5.014,41.27-4.923c0,0.092-23.456,9.751-39.257,14.234
	c-11.072,3.143-28.184,4.43-30.197,1.56c-2.013-2.869,1.015-6.826,1.015-6.826c-6.04,1.515-9.283,6.505-23.562,8.235
	c-13.287,1.611-24.762-1.052-31.606-6.039C22.183,463.984,15.729,453.64,15.729,453.64z"/>
<polygon fill="#FFFFFF" stroke="#000000" stroke-width="2" stroke-miterlimit="10" points="269.667,731 345.125,703.25 362,711 
	288.5,740.375 "/>
<polygon fill="#FFFFFF" stroke="#000000" stroke-width="2" stroke-miterlimit="10" points="292.75,680.75 311.375,688.875 
	241.875,717.25 225.125,710 "/>
</svg>
