<?xml version="1.0" encoding="utf-8"?>
<!-- Generator: Adobe Illustrator 16.2.0, SVG Export Plug-In . SVG Version: 6.00 Build 0)  -->
<!DOCTYPE svg PUBLIC "-//W3C//DTD SVG 1.1//EN" "http://www.w3.org/Graphics/SVG/1.1/DTD/svg11.dtd">
<svg version="1.1" id="Layer_1" xmlns="http://www.w3.org/2000/svg" xmlns:xlink="http://www.w3.org/1999/xlink" x="0px" y="0px"
	 width="600px" height="800px" viewBox="0 0 600 800" enable-background="new 0 0 600 800" xml:space="preserve">
<rect x="5" y="6" fill="#FFFFFF" stroke="#000000" stroke-width="2" stroke-miterlimit="10" width="590" height="356.759"/>
<path fill="#FFFFFF" stroke="#000000" stroke-width="2" stroke-miterlimit="10" d="M223,102c156,6,146.834,38.125,236,32.667
	c65.334-4,136-33.667,136-33.667v54c0,0-149.729,20.962-196.666,18.333C315,168.667,282,125,199,124c-61.069-0.736-157,9-157,9
	S161.014,99.616,223,102z"/>
<path fill="#FFFFFF" stroke="#000000" stroke-width="2" stroke-miterlimit="10" d="M461.16,64.527l8.621,40.348l17.934-18.967
	l-1.38,24.14l34.485-5.173l-15.864,24.485h30.692l-31.037,9.311l23.106,26.554c0,0-31.382,1.724-31.037,1.724
	s8.966,17.932,8.966,17.932l-17.587-10.69l-3.794,43.107l-20.347-37.934l-8.966,31.381v-32.071l-35.521,24.829l15.519-38.278
	l-23.104,8.621l18.967-14.829l-39.313-5.173l35.175-17.932l-23.794-4.828l24.483-5.518l-35.864-23.45l46.9,10.001l-6.553-24.14
	l21.036,16.897L461.16,64.527z"/>
<circle fill="#FFFFFF" stroke="#000000" stroke-width="2" stroke-miterlimit="10" cx="465.316" cy="144.413" r="33.365"/>
<path fill="#FFFFFF" stroke="#000000" stroke-width="2" stroke-miterlimit="10" d="M404.474,337.388
	c26.707-2.497,34.301-25.038,46.949-27.145c13.12-2.186,27.431,40.485,62.86,40.485c24.666,0,75.217,16.562,75.217,16.562
	L344,367.75C344,367.75,370.044,340.606,404.474,337.388z"/>
<path fill="#FFFFFF" stroke="#000000" stroke-width="2" stroke-miterlimit="10" d="M-175,233"/>
<path fill="#FFFFFF" stroke="#000000" stroke-width="2" stroke-miterlimit="10" d="M453.588,340.899c0,0,0-53.373,24.277-74.487
	c4.864-4.229,8.502,1.595,9.61,0c0,0-22.141,25.224-22.141,74.487C465.335,346.971,454.731,345.694,453.588,340.899z"/>
<path fill="#FFFFFF" stroke="#000000" stroke-width="2" stroke-miterlimit="10" d="M431.034,338.988c0,0,0-59.08-18.819-82.451
	c-3.771-4.682-6.59,1.765-7.448,0c0,0,17.162,27.921,17.162,82.451C421.929,345.709,430.146,344.296,431.034,338.988z"/>
<path fill="#FFFFFF" stroke="#000000" stroke-width="2" stroke-miterlimit="10" d="M465.603,239.233
	c7.722-3.082,20.494,13.839,20.494,13.839s19.928-6.354,21.609-0.593l-14.702,11.497c0,0,27.096,5.118,23.835,11.398
	c-0.742,1.429-25.617,0.097-25.617,0.097s6.761,17.544,2.672,18.494c-2.153,0.5-21.161-16.744-21.161-16.744
	s-20.792,19.66-22.424,18.91c-4.313-1.98,3.935-23.153,3.935-23.153s-24.739,7.08-24.28,3.993
	c1.93-12.995,22.053-16.907,22.053-16.907l-13.812-4.336c15.817-10.413,30.295-3.652,30.295-3.652L465.603,239.233z"/>
<path fill="#FFFFFF" stroke="#000000" stroke-width="2" stroke-miterlimit="10" d="M595,360.25c0,0-214.449-11.136-292.666,1.417
	c-162.001,26-297.333,0-297.333,0v434.667h590.666L595,360.25z"/>
<path fill="#FFFFFF" stroke="#000000" stroke-width="2" stroke-miterlimit="10" d="M438.5,531.021
	c30.114,26.623,62,69.38,55,130.599c-3.337,29.179,9.25,61.938,53.25,134.38L5.5,795.834V314.523c0,0,47.825,5.856,78.5,6.727
	c40.593,1.153,100.444,17.442,142.444,21.523c33.979,3.301,122.771,0.926,125.926,0.926c37,0,74.971,22.002,78.13,24.075
	c14,9.183-10,21.426-20,53.055C394.077,472.772,408.852,504.811,438.5,531.021z"/>
<path fill="#FFFFFF" stroke="#000000" stroke-width="2" stroke-miterlimit="10" d="M380.334,445.334
	c-28.319,43.005-80.839,48.603-108.661,80.634c-13.824-1.313-27.64-2.628-41.488-3.921c-6.923-0.645-13.846-1.291-20.736-1.94
	c-44.557-6.039-87.625-12.304-132.153-16.058c-8.905-0.753-17.806-1.468-26.704-2.146c-15.86-1.005-45.909-3.1-45.909-3.1L5,448
	c0,0,51.294-13.09,64.037-26.148c32.944,4.549,53.231,1.707,85.185,4.63c8.673,0.736,47.768,3.96,56.481,4.63
	c43.584,3.376,55.585,2.707,98.148,5.556c7.977,0.628,19.951,2.976,27.778,3.703c7.834,0.727,16.479,0.937,24.074,1.853
	C375.786,443.633,380.334,445.334,380.334,445.334z"/>
<path fill="#FFFFFF" stroke="#000000" stroke-width="2" stroke-miterlimit="10" d="M290.168,258.279
	c-117.935-3.151-111.004-20.021-178.413-17.154c-49.391,2.101-106.829,17.68-106.829,17.68v-28.358
	c0,0,117.207-11.007,152.691-9.627c63,2.451,87.946,25.382,150.693,25.907C354.477,247.113,427,242,427,242
	S337.027,259.531,290.168,258.279z"/>
<path fill="#FFFFFF" stroke="#000000" stroke-width="2" stroke-miterlimit="10" d="M401.481,220.137
	c6.629-3.187,17.592,14.31,17.592,14.31s17.107-6.57,18.551-0.613l-12.62,11.887c0,0,23.261,5.292,20.461,11.786
	c-0.638,1.478-21.991,0.1-21.991,0.1s5.805,18.141,2.295,19.122c-1.849,0.518-18.168-17.313-18.168-17.313
	s-17.849,20.328-19.25,19.553c-3.704-2.048,3.378-23.94,3.378-23.94s-21.238,7.321-20.846,4.128
	c1.659-13.437,18.934-17.481,18.934-17.481l-11.856-4.483c13.578-10.767,26.007-3.776,26.007-3.776L401.481,220.137z"/>
<path fill="#FFFFFF" stroke="#000000" stroke-width="2" stroke-miterlimit="10" d="M237.975,765.301
	c0,11.725-11.29,22.75-29.725,30.637c0,0-155.525,0.363-156.5,0.063c-19.71-6.083-30.775-18.758-30.775-30.699
	c0-24.301,48.577-44,108.5-44S237.975,741,237.975,765.301z"/>
<path fill="#FFFFFF" stroke="#000000" stroke-width="2" stroke-miterlimit="10" d="M494.204,649.094
	c-5.729,1.767-16.797-19.866-16.797-19.866s-25.369,4.533-27.369,0.533c-2.02-4.039,14.682-16.542,14.682-16.542
	s-14.497-13.53-12.516-17.292c1.572-2.985,25.085,6.566,25.085,6.566s14.658-10.961,18.915-8.566c2.667,1.5,1.54,17.946,1.54,17.946
	s18.867,12.354,17.627,18.554c-0.667,3.334-17.554-2.03-17.554-2.03S498.521,647.763,494.204,649.094z"/>
<path fill="#FFFFFF" stroke="#000000" stroke-miterlimit="10" d="M472.371,614.594c0,0-0.166,9.667,18.167,7.5L472.371,614.594z"/>
<path fill="#FFFFFF" stroke="#000000" stroke-miterlimit="10" d="M485.677,609.195c-1.116,1.501-0.806,2.522-4.113,1.163
	c-3.391-1.394-1.183-2.773-0.066-4.274c1.117-1.5,2.961-2.021,4.114-1.163C486.765,605.781,486.793,607.693,485.677,609.195z"/>
<path fill="#FFFFFF" stroke="#000000" stroke-miterlimit="10" d="M493.692,610.361c0,3.146-0.384,5.064-2.589,3.565
	c-2.405-1.635-2.6,0-2.589-3.565c0.006-1.969,1.159-3.565,2.589-3.565S493.692,608.393,493.692,610.361z"/>
<path fill="#FFFFFF" stroke="#000000" stroke-width="2" stroke-miterlimit="10" d="M350.333,761.334
	c8-2.667,10.667-72.667,10.667-72.667l9-0.667l0.92,11.555l7.83-0.305l1.5-12.25l8.007,0.14L390,700.5l9.25-0.75l1.5-13l8.25,0.75
	c0,0,6.084,63.834,10.75,66.5"/>
<path fill="#FFFFFF" stroke="#000000" stroke-width="2" stroke-miterlimit="10" d="M413.666,734.668
	c8-2.667,10.667-72.667,10.667-72.667l9-0.667l0.92,11.555l6.83-0.305l2.5-12.25l8.007,0.14l1.743,13.36l9.25-0.75l1.5-13l8.25,0.75
	c0,0,6.084,63.834,10.75,66.5"/>
<path fill="#FFFFFF" stroke="#000000" stroke-width="2" stroke-miterlimit="10" d="M434,646.25c-1.75,16.5-7.608,10.324-11.75,10.5
	c-7.833,0.333-36.347,3.5-42,3.5c-17.949,0-47.029-0.205-47.25-6c-0.167-4.375-4.902-12.297-0.25-14.5c13.957-6.608,51.538,2,65,2
	c6.429,0,20.566,1.997,24.25-2.915c4.717-6.29,7.381-10.95,10.5-13.085c4.484-3.068,8.57-1.885,9.75-1c1.772,1.33,0.5,6.5-2.25,11.5
	C438.29,639.358,434.54,641.154,434,646.25z"/>
<path fill="#FFFFFF" stroke="#000000" stroke-width="2" stroke-miterlimit="10" d="M337.039,580.249
	c1.683-3.644,7.581-7.173,10.476-5.088s18.427,14.458,21.462,15.095c0.67,0.141,1.81-0.876,6.836-1.526
	c5.027-0.651,23.375,2.021,23.375,2.021s0.826,0.505,1.438-0.625c1.413-2.621,4.304-10.887,5.232-10.951
	c1.182-0.085,0.268,8.139,0.268,8.139s14.233-4.118,15.211-1.41c0.998,2.765-8.496,1.568-8.289,3.559
	c0.221,2.123,9.55-0.759,9.953,1.373c0.717,3.784-10.398,0.481-10.195,2.801c0.179,2.051,10.195-0.134,9.718,3.184
	c-0.507,3.518-10.273-1.474-10.752,0.82c-0.378,1.807,7.518,2.502,7.036,4.112c-0.646,2.161-6.682-0.001-8.869-0.126
	c-1.027-0.059-5.368,0.721-6.313,0.313c-0.892-0.385-2-0.438-2-0.438s-18.662-0.015-26.146,1.729
	c-7.482,1.743-17.874-2.218-21.691-3.324c-3.817-1.107-13.92-5.711-15.394-7.702C336.922,590.211,337.039,580.249,337.039,580.249z"
	/>
<path fill="#FFFFFF" stroke="#000000" stroke-width="2" stroke-miterlimit="10" d="M419.5,670.5c0,3.037-11.193,9-25,9
	s-25-5.963-25-9c0-0.881-9.425-62.261-7.75-63c4.099-1.807,20.199,5.5,30,5.5c8.947,0,28.832-7.305,33.25-5.75
	C427.398,608.095,419.5,669.432,419.5,670.5z"/>
<ellipse fill="#FFFFFF" stroke="#000000" stroke-width="2" stroke-miterlimit="10" cx="393" cy="607.25" rx="32" ry="8.25"/>
<path fill="#FFFFFF" stroke="#000000" stroke-width="2" stroke-miterlimit="10" d="M400.5,625l5.25,4.25c0,0-23,33.75-44,24.75
	s0-32.25,0-32.25L363,630c0,0-10.75,12.5,0.5,17.75S387.25,640.75,400.5,625z"/>
<path fill="#FFFFFF" stroke="#000000" stroke-width="2" stroke-miterlimit="10" d="M341.667,658.501
	c-5.833,20.084-21.551,24.251-39.5,24.251s-21.885-11.711-22.667-24.251c-1.833-29.416,10.385-20,28.334-20
	c10.442,0,26.887-7.567,32.333-2.167C344.081,640.217,343.133,653.455,341.667,658.501z"/>
<path fill="#FFFFFF" stroke="#000000" stroke-width="2" stroke-miterlimit="10" d="M290.75,609.25
	C279.386,636.524,276.25,652,311,653c23.512,0.677,36.5-9.953,36.5-39.5c0-0.499,18.334,2.167,28.167,2.834
	c0.184,0.013,2.561,3.383,4.084,3.917c0.737,0.258,9.639,6.072,10.25,5.583c1.666-1.333-4.366-6.065-3.834-6.083
	c1.508-0.049,9.667,4.083,10.333,2.499c0.651-1.55-7.439-5.301-7-5.25c1.453,0.166,10.75,2,12.25-0.75
	c1.463-2.683-11.988-2.552-10.75-4c1.021-1.195,9.38-1.253,9.25-4.5c-0.083-2.083-12.414,0.895-14.5,0
	c-1.597-0.686,5.422-6.246,3.25-7c-1.261-0.438-8.648,4.77-10.024,4.316C368.332,601.567,354.5,599.5,349.25,599
	c-2.235-0.213-1.383-8.058-1.25-10.25c0.5-8.25-6.267-17.609-11-22.083c-3.635-3.435-3.644-2.706-6.75-5.417
	c-5.597-4.885-5.066,6.769-7.75,6.5c-2.5-0.25-9.5,2.75-16.25,12.5C300.924,587.942,295.75,597.25,290.75,609.25z"/>
<path fill="#FFFFFF" stroke="#000000" stroke-width="2" stroke-miterlimit="10" d="M334.125,685.375
	c4.923,5.681,3.012,40.752,8.625,41.875c5,1,18.5-21.5,12.542,2.847c-0.759,3.101-3.134,4.854-6.292,9.57
	c-1.623,2.423-3.363,7.016-5.666,10c-4.623,5.992-8.257-1.03-13.334-9c-4.807-7.546-9-30.692-15.333-38
	c-15.599-18.001-34.955-27.058-20.492-39.873C302.802,655.149,321.105,670.35,334.125,685.375z"/>
<path fill="#FFFFFF" stroke="#000000" stroke-width="2" stroke-miterlimit="10" d="M364.448,545.334
	c9.973,7,3.135,34.667-14.814,34.333c-19.017-0.354-31.34-17-27.636-29.666c0.956-3.271-6.464-12.763-5.859-16.309
	c2.754-16.139,15.146-31.409,29.577-26.442C374.776,517.25,357.074,540.157,364.448,545.334z"/>
<path fill="#FFFFFF" stroke="#000000" stroke-width="2" stroke-miterlimit="10" d="M334.167,630.334
	c-1,0.833-1.166,2.334-0.833,3.667s0.833,2.666,0.833,2.666"/>
<path fill="#FFFFFF" stroke="#000000" stroke-width="2" stroke-miterlimit="10" d="M343.25,561.5c0,0,2.75,10.5,13,10.75
	s4.5-7.25,4.5-7.25S350.25,567.25,343.25,561.5z"/>
<path fill="#FFFFFF" stroke="#000000" stroke-miterlimit="10" d="M357.5,544.75c0,0,5.75-9.5,11,1
	c-2.715-2.743-2.151-3.748-5.5-4.056C361.36,541.544,357.5,544.75,357.5,544.75z"/>
<path fill="#FFFFFF" stroke="#000000" stroke-width="2" stroke-miterlimit="10" d="M359,552c1.75,1.25,5.126,8.025-2.874,5.275
	c0,0-0.197-0.519,0.687-0.588s3.037,0.748,3.375,0.25C361.343,555.241,359.438,552.94,359,552z"/>
<path fill="none" stroke="#000000" stroke-width="2" stroke-miterlimit="10" d="M329,578.001c1.75,1.75,11.458,12.136,13.667,16.333
	c2.5,4.75,5.833,4.416,5.833,4.416"/>
<path fill="#FFFFFF" stroke="#000000" stroke-width="2" stroke-miterlimit="10" d="M354.959,525.667c0,0,5.541,9.833,15.469,7.667
	c8.839-1.929,2.738-16.667-2.433-22c-4.863-5.016-8.822-9.666-15.516-10s-10.952,3.999-10.647,4.333s-18.557-7.333-24.945,12
	c-1.347,4.074-9.431,26.334-0.608,32.334c1.697,1.155,6.531,3.876,7.604,3.333c3.956-2-6.692-5.666-2.433-14.333
	c2.257-4.594,5.233,2.664,6.083,0.333c1.468-4.025,4.136-7.365,9.735-5.667C356.5,539.5,354.959,525.667,354.959,525.667z"/>
<path fill="#FFFFFF" stroke="#000000" stroke-width="2" stroke-miterlimit="10" d="M96.113,426.334
	c0,11.434-75.481,25.173-89.922,22.736l-0.548-33.569c14.54-2.493,30.507-5.751,49.879-5.751
	C104.146,409.75,96.113,414.9,96.113,426.334z"/>
<path fill="#FFFFFF" stroke="#000000" stroke-width="2" stroke-miterlimit="10" d="M68.29,431.551C68,427,70,420.75,72.25,418
	c2.596-3.173,6.457-5.848,9.5-8.75c10.75-10.25,23.877-12.75,31-12.75c6.115,0,19.75,2.25,22.806,9.164
	c3.207,7.257-22.266,16.958-22.266,27.806c0,10.688,13.014,21.343,9.5,28.431c-1.121,2.26-17.739,3.155-30.457,0.434
	C80.164,459.73,69.649,452.88,68.29,431.551z"/>
<path fill="#FFFFFF" stroke="#000000" stroke-width="2" stroke-miterlimit="10" d="M258,387.5c0.583,16.167,4.5,23.25,6.75,43.5
	c0.18,1.621,8.277,0.574,18.25,3c9.25,2.25,20.866,8.673,28.667,9c5.198,0.219,13.562-2.051,17.717-0.274
	c2.258,0.965,16.191,5.707,14.783,10.107c-1.639,5.118-17.479,3.534-20.983,3.208c-4.287-0.4-9.445-2.787-14.184-2.041
	c-8.009,1.261-17,0.25-28.25,0c-10.454-0.232-20.429-1.509-26-3.25c-4-1.25-9.5-6.432-9.5-23s-7.59-64.75-4-64.75
	S257.402,370.942,258,387.5z"/>
<polygon fill="#FFFFFF" stroke="#000000" stroke-width="2" stroke-miterlimit="10" points="345.167,453.333 295.333,493.833 
	311.833,497.167 360.833,455.5 "/>
<path fill="#FFFFFF" stroke="#000000" stroke-width="2" stroke-miterlimit="10" d="M312.334,493.167L242.5,482.5
	c0,0,15.407-12.348,20.667-15.333c6.167-3.5,11.411-0.794,11.411-0.794s1.089-8.706,6.922-11.206c2.828-1.212,20-4.834,20-4.834
	l25,1.667l27,3.5c0,0-7.636,1.917-12.166,4.333c-7.5,4-9.084,14.095-9.084,14.095s-3.139-3.792-9.583,1.405
	C317.5,479.5,312.334,493.167,312.334,493.167z"/>
<path fill="#FFFFFF" stroke="#000000" stroke-width="2" stroke-miterlimit="10" d="M103.08,463.166
	c0.706,2.573-39.08,3.334-50.852,3.167c-15.153-0.215-36.093-1.294-47.062-3.773l0.512-33.913
	c14.665-2.313,40.984-6.619,50.988-5.813C96,426,97,441,103.08,463.166z"/>
<path fill="#FFFFFF" stroke="#000000" stroke-width="2" stroke-miterlimit="10" d="M168,457c-17,9.5-22.667,7-40.5,7.5
	c-16.524,0.463-20.167-4.833-24.833-15.166c-4.349-9.628-2.159-24.955,5-32.334c2.832-2.919,11.824-7.418,17-9.666
	c8.25-3.583,26.614,2.392,30.333,1.166c22-7.25,18.5-40.5,34-46.5c45.015-17.425,28.75-9.75,32-32.75
	c1.897-13.424,9-23.75,21.87-27.033c18.374-4.687,37.822,3.835,36.88,17.533c-0.196,2.864-3.693,7.601-4,10.25
	c-0.074,0.64-0.176,4.572-0.5,8.5c-0.383,4.657-9.174,15.236-9.5,16c-0.43,1.011-0.877,1.958-1.337,2.84
	c-3.541,6.776-7.944,9.658-12.768,7.379c-1.566-0.74-5.227-4.3-6.36-4.332L239,365.333c-0.293,1.605,7.75,34.167,20.75,55.167
	c5.759,9.304-36.73,34.271-48.75,22.25l-2.25-2.5c0,6.264-1.171,14.135-2.054,19.189c-0.207,1.19,4.881,2.143,14.804,3.811
	c14.921,2.508,28.235,15.14,41.917,17.334c6.004,0.963,22.25-5.584,21.417,2.416c-0.194,1.866,14.538,6.127,12.167,10
	c-2.201,3.596-21.616,5.166-26,3.667c-5.576-1.907-11.262-8.187-17-9.167c-14.41-2.46-27.5-1.25-42.25-5.25
	c-11.07-3.002-16.288-5.667-17-5.667c-5.254,0-8.594-14.219-9.25-31.083L168,457z"/>
<path fill="#FFFFFF" stroke="#000000" stroke-width="2" stroke-miterlimit="10" d="M185.751,443.438
	c-4.607-1.666-9.399-0.621-15.001-15.188c-2.5-6.5-4.5-16.5-4-19.75c1.292-8.401,6.785-22.326,6.25-19c-2.25,14-3.5,33.25,13,42
	L185.751,443.438z"/>
<path fill="#FFFFFF" stroke="#000000" stroke-width="2" stroke-miterlimit="10" d="M209.75,433.5
	c1.961-8.811,10.882-18.901,9.75-32.75c-3.25-39.75-8.5-38.75-15.25-44.5c-1.151-0.98,4.21-1.466,6-0.75
	c8.75,3.5,9.999,16.087,14,35.75c1.367,6.722,3.368,18.063,7.5,26.75c3.567,7.499,7.791,15.859,9.75,15
	c3.873-1.698,8.13-10.408,5.78-24.34c-1.972-11.694-8.266-43.279-6.78-43.41c1.153-0.101,1.416-1.064,2.25-0.25
	c2.986,2.918,3.351,24.372,6.648,30.929c2.531,5.034,10.018,18.159,12.5,24.22c1.227,2.997,2.343,12.202-5.347,15.847
	c-3.302,1.565-7.446,2.226-11.071,2.954c-5.23,1.051-7.48,6.301-11.23,8.801c-6.607,4.405-16.25,6.25-25.75,1.75
	C208.5,449.5,208.42,439.479,209.75,433.5z"/>
<path fill="#FFFFFF" stroke="#000000" stroke-width="2" stroke-miterlimit="10" d="M280.5,324.5
	c-1.61-0.467-7.119-16.225-10.75-12.5c-11.772,12.077-16,0.25-27.661,11.787c-1.498,1.482-3.522-9.236-9.567-1.551
	c-6.46,8.214,1.024,12.582,0.337,14.34c-1.211,3.102-0.218,5.629-1.713,7.768C224.75,353.5,211.551,356.361,200,357.25
	c-13,1-22.824,16.11-22.5,13.25c3-26.5,30.626-25.762,34.5-31.5c5.446-8.066,2.981-18.009,13-31
	c7.607-9.864,15.592-14.907,23.134-17.283C288.5,278,299.762,330.095,280.5,324.5z"/>
<path fill="none" stroke="#000000" stroke-width="2" stroke-miterlimit="10" d="M185.333,385.5c0,4.121,1.506,39.207,0.667,46"/>
<path fill="#FFFFFF" stroke="#000000" stroke-width="2" stroke-miterlimit="10" d="M261.583,332.251
	c-0.307,1.968-0.409,3.396-1.448,4.409c-0.786,0.765-6.712,0.161-7.228-0.871c-0.637-1.275-0.39-2.631-0.092-4.542
	c0.539-3.456,3.448-5.752,5.54-5.426C260.446,326.147,262.122,328.795,261.583,332.251z"/>
<path fill="#FFFFFF" stroke="#000000" stroke-width="2" stroke-miterlimit="10" d="M275.095,333.637
	c-0.307,1.969-0.409,3.396-1.448,4.409c-0.786,0.765-6.712,0.161-7.228-0.871c-0.637-1.275-0.39-2.631-0.092-4.542
	c0.539-3.456,3.448-5.752,5.54-5.426C273.959,327.534,275.634,330.181,275.095,333.637z"/>
<ellipse transform="matrix(0.9875 -0.1577 0.1577 0.9875 -49.4101 44.9374)" stroke="#000000" stroke-width="2" stroke-miterlimit="10" cx="258.543" cy="333.909" rx="1.375" ry="1.875"/>
<ellipse transform="matrix(0.9875 -0.1577 0.1577 0.9875 -49.5884 47.041)" stroke="#000000" stroke-width="2" stroke-miterlimit="10" cx="271.661" cy="336.029" rx="1.375" ry="1.875"/>
<path fill="#FFFFFF" stroke="#000000" stroke-miterlimit="10" d="M265.563,336.029c0,0,4.062,8.29,2.729,11.035
	c-1.334,2.745-4.79,1.939-4.79,1.939s3.251-0.354,4.082-2.086C268.622,344.751,265.563,336.029,265.563,336.029z"/>
<path fill="#FFFFFF" stroke="#000000" stroke-width="2" stroke-miterlimit="10" d="M250,349.5c0,0,4.647,6.736,9.376,6.279
	c4.729-0.457-1.261-3.829-2.423-3.792C255.791,352.023,250,349.5,250,349.5z"/>
<path fill="#FFFFFF" stroke="#000000" stroke-miterlimit="10" d="M249.188,323.598c0,0,1.781,4.339,3.791,4.711
	c3.887,0.719,0.653-5.421,0.653-5.421s1.775,4.081,0.244,4.862C252.433,328.486,249.188,323.598,249.188,323.598z"/>
<path fill="#FFFFFF" stroke="#000000" stroke-miterlimit="10" d="M279.5,327.5c0,0-8.25,5.25,1,5.5c0,0-3.563-0.123-3.625-1.781
	C276.817,329.686,279.5,327.5,279.5,327.5z"/>
<line fill="#FFFFFF" stroke="#000000" stroke-width="2" stroke-miterlimit="10" x1="275" y1="466.833" x2="329.667" y2="472.5"/>
<path fill="#FFFFFF" stroke="#000000" stroke-width="2" stroke-miterlimit="10" d="M234.75,410.75
	c-0.001-0.001,7.501,13.074,6.75,22"/>
<g>
	<path fill="#FFFFFF" stroke="#000000" stroke-miterlimit="10" d="M567.5,714.5c-20-20.925-20-88-33-135.954
		c-6.994-25.802-50.693-58.672-64-80.396c-20-32.65-5.556-103.725-18.556-127.725l-0.5,0.5c13,24-3.444,95.074,16.556,127.725
		c13.307,21.724,57.006,54.594,64,80.396C545,627,547,694.075,567,715L567.5,714.5z"/>
</g>
<path fill="#FFFFFF" stroke="#000000" stroke-miterlimit="10" d="M574.854,560.004c-4.603-24.128-60.261-50.219-71.644-73.389
	c-25.356-51.611-19.035-108.563-30.542-117.611L471.814,370c11.507,9.048,3.186,66,28.542,117.611
	C511.739,510.781,569.397,536.872,574,561L574.854,560.004z"/>
<path fill="#FFFFFF" stroke="#000000" stroke-miterlimit="10" d="M206.75,741.5c-4.697,2.373-10.973,2.535-26.75,14.75
	c-7.75,6-37.281,8.316-54.111,8.509c-32.753,0.375-41.237-3.378-55.139-9.759c0,0-10-7.75-23.75-7.25v1
	c13.75-0.5,23.75,7.25,23.75,7.25c13.902,6.381,22.386,10.134,55.139,9.759c16.83-0.192,46.361-2.509,54.111-8.509
	c15.777-12.215,22.053-12.377,26.75-14.75V741.5z"/>
<path fill="#FFFFFF" stroke="#000000" stroke-miterlimit="10" d="M167.712,761.319c-0.236-4.029-1.109-11.834,2.217-20.578
	c3.064-8.06,15.917-13.075,15.917-13.075l-0.596-0.166c0,0-12.964,4.784-16.028,12.844c-3.326,8.744-2.201,17.003-1.965,21.032
	L167.712,761.319z"/>
<path fill="none" stroke="#000000" stroke-width="2" stroke-miterlimit="10" d="M135.188,721.75c0,0-5.888,6.033-7.279,16.193
	c-1.51,11.026-0.964,22.227-0.856,27.307h-0.438c-0.107-5.08-0.654-16.28,0.856-27.307c1.392-10.16,7.279-16.193,7.279-16.193
	H135.188z"/>
<path fill="none" stroke="#000000" stroke-width="2" stroke-miterlimit="10" d="M88.938,762.313c0.25-4,1.652-12.318-1.875-21
	c-3.25-8-17-12.75-17-12.75L69.5,728.75c0,0,13.75,4.75,17,12.75c3.527,8.682,1.917,16.583,1.667,20.583L88.938,762.313z"/>
<path fill="none" stroke="#000000" stroke-width="2" stroke-miterlimit="10" d="M91.167,795.917
	c-0.107-3.62-0.331-11.331,1.179-19.189c1.392-7.24,7.488-12.395,7.488-12.395l1.333,0.334c0,0-7.054,4.883-8.446,12.123
	c-1.51,7.858-1.078,15.59-0.971,19.21L91.167,795.917z"/>
<path fill="none" stroke="#000000" stroke-width="2" stroke-miterlimit="10" d="M153.083,795.75
	c0.072-3.822-0.105-11.505-1.083-19.493c-0.908-7.416-4.75-11.819-4.75-11.819L147,764.5c0,0,3.842,4.403,4.75,11.819
	c0.986,8.048,0.904,15.806,0.833,19.514L153.083,795.75z"/>
<path fill="none" stroke="#000000" stroke-width="2" stroke-miterlimit="10" d="M202.177,795.938
	c0.292-4.518,1.717-14.729-2.399-24.535c-3.793-9.036-19.263-14.127-19.263-14.127L181,757c0,0,15.694,5.341,19.404,14.333
	c4.025,9.759,2.632,19.921,2.346,24.417L202.177,795.938z"/>
<path fill="#FFFFFF" stroke="#000000" stroke-miterlimit="10" d="M348.791,613.209c-5.508-0.86-9.506-2.948-13.291-4.375
	c-10.973-4.136-15.651-11.971-20.25-18.458l-1-0.376c0,0,9.251,14.751,20.084,18.834c3.772,1.422,5.833,2.833,11.166,3.666
	L348.791,613.209z"/>
<path fill="#FFFFFF" stroke="#000000" stroke-miterlimit="10" d="M338.804,546.407c0,0,2.466-10.827,10.755-2.515
	c-3.44-1.749-3.222-2.88-6.497-2.117C341.458,542.148,338.804,546.407,338.804,546.407z"/>
<path fill="#FFFFFF" stroke="#000000" stroke-miterlimit="10" d="M78.721,411.926c13.5-10,25.591-5.301,25.591-5.301l1.188,0.125
	c0,0-13-5.417-26.5,4.583L78.721,411.926z"/>
<path fill="#FFFFFF" stroke="#000000" stroke-miterlimit="10" d="M208.972,438.75c0,0,1.779-35.109,2.112-49.25
	c0.322-13.687-0.024-24.375-6.75-24.916h-2c9,0.724,8.666,10.877,8.333,25.016c-0.333,14.14-2.5,49.15-2.5,49.15H208.972z"/>
</svg>
