<?xml version="1.0" encoding="utf-8"?>
<!-- Generator: Adobe Illustrator 16.2.0, SVG Export Plug-In . SVG Version: 6.00 Build 0)  -->
<!DOCTYPE svg PUBLIC "-//W3C//DTD SVG 1.1//EN" "http://www.w3.org/Graphics/SVG/1.1/DTD/svg11.dtd">
<svg version="1.1" id="Layer_1" xmlns="http://www.w3.org/2000/svg" xmlns:xlink="http://www.w3.org/1999/xlink" x="0px" y="0px"
	 width="600px" height="800px" viewBox="0 0 600 800" enable-background="new 0 0 600 800" xml:space="preserve">
<rect x="1" y="1" fill="#FFFFFF" stroke="#1D1D1B" stroke-width="2" stroke-miterlimit="10" width="598" height="798"/>
<path fill="none" stroke="#1D1D1B" stroke-width="2" stroke-miterlimit="10" d="M232,105c-2,70.5-59.457,132.5-136,132.5
	c-36.123,0-70.331-7.859-95-30.5V1c1.419,0.418,192,0,192,0C221.81,26.396,233.175,63.592,232,105z"/>
<path fill="none" stroke="#1D1D1B" stroke-width="2" stroke-miterlimit="10" d="M378.838,152.833
	c11.092-5.545,32.999-0.667,32.999-0.667s2.001-18.333,17.334-28.333s32.333-4.667,32.333-4.667s-13.604-19.477-39.333-6
	c-14,7.333-19,24.333-19,24.333s-12.667-5.333-31.333,6.667s-11.667,24.667-11.667,24.667S366.171,159.167,378.838,152.833z"/>
<path fill="none" stroke="#1D1D1B" stroke-width="2" stroke-miterlimit="10" d="M320,251.333
	c19.529-6.126,40.771,2.789,40.771,2.789s5.609-20.158,25.244-28.505c19.636-8.347,46.258,9.304,46.258,9.304
	s-20.141-32.858-52.497-22.551c-17.606,5.609-26.468,23.717-26.468,23.717s-13.789-8.328-37.66,1.64
	c-23.873,9.967-25.482,34.976-25.482,34.976S303,256.667,320,251.333z"/>
<path fill="none" stroke="#1D1D1B" stroke-width="2" stroke-miterlimit="10" d="M494.334,277.667
	c11.333-2.667,24.163,0.021,24.163,0.021s4.109-9.264,16.17-15.021c12.06-5.757,28.186,0.888,28.186,0.888
	s-13.995-19.372-34.003-11.989c-10.888,4.017-15.769,15.367-15.769,15.367s-9.026-4.617-23.696,2.272
	c-14.669,6.889-14.703,22.204-14.703,22.204S480.783,280.855,494.334,277.667z"/>
<path fill="#FFFFFF" stroke="#1D1D1B" stroke-width="2" stroke-miterlimit="10" d="M78.667,348
	c25.333,0,94.667-30.666,128.667-31.333s68,33.333,103.333,32s54.666-29.333,79.333-28s54,38,88.667,34.667S533.333,324,554,322.667
	s33.667,24.833,45,24.833v102.25L1,459V326.5C1,326.5,52,348,78.667,348z"/>
<path fill="#FFFFFF" stroke="#1D1D1B" stroke-width="2" stroke-miterlimit="10" d="M524.646,398
	c-56.313,4-94.587-30.666-128.561-31.333c-33.969-0.667-67.941,33.333-103.247,32c-35.303-1.333-54.619-29.333-79.265-28
	c-24.649,1.333-53.956,38-88.595,34.667C90.343,402,70.361,374,49.711,372.667S12.323,393.5,1,393.5v106.25L599,509V376.5
	C599,376.5,551.224,396.112,524.646,398z"/>
<path fill="#FFFFFF" stroke="#1D1D1B" stroke-width="2" stroke-miterlimit="10" d="M76.667,481.332
	c47.333-2,92.667-34.667,126.667-35.334s62,38,97.333,36.667c35.333-1.333,66.667-43.333,91.333-42S470,481.331,504.668,477.998
	c34.666-3.334,28.666-12.332,49.332-13.665c20.668-1.333,33.668,20.917,45,20.917v106.166l-598,9.25v-132.5
	C1,468.166,29.967,483.306,76.667,481.332z"/>
<path fill="#FFFFFF" stroke="#1D1D1B" stroke-width="2" stroke-miterlimit="10" d="M524.668,522.665
	c-58,0.667-72.787-23.138-116.667-24c-33.97-0.667-51.362,44.666-86.667,43.333c-35.302-1.333-68.021-51.333-92.667-50
	c-24.649,1.333-48.028,44.667-82.667,41.334c-34.637-3.334-56.016-25.334-76.667-26.667S12.323,520.5,1,520.5v106.25L599,636V503.5
	C599,503.5,551.311,522.358,524.668,522.665z"/>
<path fill="#FFFFFF" stroke="#1D1D1B" stroke-width="2" stroke-miterlimit="10" d="M81.334,609.332c48.667-2.667,66-39.333,100-40
	s74.667,36.666,110,35.333c35.333-1.333,63.333-47.333,88-46c24.668,1.333,64.667,47.491,99.334,44.158
	c34.667-3.334,55.333-21.492,76-22.825s32.999,10.991,44.332,10.991v106.25l-598,9.25v-132.5
	C1,573.989,54.708,610.791,81.334,609.332z"/>
<path fill="#FFFFFF" stroke="#1D1D1B" stroke-width="2" stroke-miterlimit="10" d="M505.644,697.998
	c-25.186,0-43.144-32.666-76.948-33.333c-33.799-0.667-99.528,32-134.657,30.667c-35.126-1.333-36.505-26.667-61.027-25.334
	c-24.526,1.333-47.126,34.335-81.591,31.002c-34.464-3.334-84.923-49.669-105.47-51.002C25.403,648.665,12.267,681.5,1,681.5V799
	h598V664.5C599,664.5,532.155,697.998,505.644,697.998z"/>
</svg>
